<?xml version="1.0" encoding="utf-8"?>
<!-- Generator: Adobe Illustrator 16.0.4, SVG Export Plug-In . SVG Version: 6.00 Build 0)  -->
<!DOCTYPE svg PUBLIC "-//W3C//DTD SVG 1.1//EN" "http://www.w3.org/Graphics/SVG/1.1/DTD/svg11.dtd">
<svg version="1.1" id="Layer_1" xmlns="http://www.w3.org/2000/svg" xmlns:xlink="http://www.w3.org/1999/xlink" x="0px" y="0px"
	 width="37.669px" height="80.952px" viewBox="80.252 58.944 37.669 80.952" enable-background="new 80.252 58.944 37.669 80.952"
	 xml:space="preserve">
<path fill="#24296B" d="M117.784,128.363c0,6.169-2.904,11.169-6.899,11.169H88.106c-3.995,0-7.178-5-7.178-11.169V90.144
	l1.298-18.738c0-6.168,1.885-11.168,5.878-11.168h22.779c3.995,0,5.74,5,5.74,11.168l1.159,18.738V128.363z"/>
<path fill="#D2F8F9" d="M116.729,86.573c0.362,1.13-0.813,1.971-2.596,1.971H85.09c-1.781,0-2.958-0.841-2.596-1.971l0.252-0.743
	c0.336-1.052,1.92-1.815,3.553-1.815h26.622c1.635,0,3.218,0.763,3.555,1.815L116.729,86.573z"/>
<path fill="#D2F8F9" d="M116.729,119.932c0.362-1.766-0.813-3.08-2.596-3.08H85.09c-1.781,0-2.958,1.314-2.596,3.08l0.252,1.302
	c0.336,1.644,1.92,2.978,3.554,2.978h26.622c1.635,0,3.218-1.333,3.555-2.978L116.729,119.932z"/>
</svg>
