<?xml version="1.0" encoding="utf-8"?>
<!-- Generator: Adobe Illustrator 16.0.4, SVG Export Plug-In . SVG Version: 6.00 Build 0)  -->
<!DOCTYPE svg PUBLIC "-//W3C//DTD SVG 1.1//EN" "http://www.w3.org/Graphics/SVG/1.1/DTD/svg11.dtd">
<svg version="1.1" id="Layer_1" xmlns="http://www.w3.org/2000/svg" xmlns:xlink="http://www.w3.org/1999/xlink" x="0px" y="0px"
	 width="80px" height="50px" viewBox="0 0 80 50" enable-background="new 0 0 80 50" xml:space="preserve">
<g id="plane">
	<path fill-rule="evenodd" clip-rule="evenodd" fill="#FFFFFF" d="M58.019,21.406c3.814,0.687,7.047-0.32,9.934-2.126
		c1.303-0.813,2.864-1.457,4.275-2.201c1.552-0.819,3.334-0.583,5.059-0.469c0.756,0.048,0.641,0.493,0.39,0.82
		c-0.684,0.889-1.402,1.766-2.118,2.643c-0.435,0.535-0.938,1.05-1.326,1.597c-0.244,0.346-0.403,0.73-0.472,1.106
		c-0.104,0.586,0.355,0.885,1.315,0.985c1.092,0.114,2.169,0.308,3.22,0.529c0.33,0.069,0.76,0.332,0.766,0.513
		c0.007,0.178-0.414,0.453-0.74,0.533c-0.944,0.228-1.918,0.424-2.906,0.549c-1.473,0.186-1.885,0.499-1.557,1.419
		c0.111,0.308,0.326,0.606,0.562,0.888c1.03,1.223,2.111,2.432,3.135,3.66c0.805,0.968,0.509,1.189-1.223,1.288
		c-2.013,0.114-3.647-0.211-5.198-1.056c-2.196-1.198-4.566-2.27-6.89-3.372c-0.348-0.165-0.852-0.282-1.283-0.279
		c-3.391,0.042-6.78,0.097-10.172,0.184c-1.848,0.048-2.145,0.348-1.64,1.455c2.698,5.958,5.405,11.912,8.107,17.87
		c0.095,0.203,0.21,0.405,0.279,0.614c0.213,0.632-0.07,0.923-1.092,1.069c-2.218,0.318-3.976-0.101-5.331-1.265
		c-4.026-3.455-8.09-6.895-12.13-10.344c-3.097-2.644-6.187-5.289-9.268-7.941c-0.732-0.631-1.688-0.969-2.926-0.978
		c-5.088-0.035-10.175-0.053-15.261-0.11c-2.233-0.026-4.498-0.01-6.685-0.243c-1.439-0.154-2.929-0.582-4.108-1.132
		c-2.415-1.128-2.353-3.066-0.049-4.311c1.585-0.859,3.48-1.279,5.517-1.344c5.15-0.165,10.305-0.275,15.459-0.407
		c1.626-0.043,3.253-0.099,4.881-0.132c1.397-0.028,2.411-0.424,3.229-1.149c6.938-6.148,13.917-12.28,20.852-18.43
		c1.21-1.07,2.691-1.664,4.815-1.556c1.584,0.08,2.002,0.392,1.584,1.355c-2.287,5.299-4.59,10.593-6.887,15.89
		c-0.386,0.889-0.771,1.778-1.14,2.672c-0.369,0.897,0.023,1.235,1.521,1.245C54.246,21.457,55.977,21.423,58.019,21.406z"/>
</g>
</svg>
