<?xml version="1.0" encoding="utf-8"?>
<!-- Generator: Adobe Illustrator 16.0.4, SVG Export Plug-In . SVG Version: 6.00 Build 0)  -->
<!DOCTYPE svg PUBLIC "-//W3C//DTD SVG 1.1//EN" "http://www.w3.org/Graphics/SVG/1.1/DTD/svg11.dtd">
<svg version="1.1" id="Layer_1" xmlns="http://www.w3.org/2000/svg" xmlns:xlink="http://www.w3.org/1999/xlink" x="0px" y="0px"
	 width="200px" height="200px" viewBox="0 0 200 200" enable-background="new 0 0 200 200" xml:space="preserve">
<path fill="#24296B" d="M67,49c0-11.046,5.199-20,12.354-20h40.793C127.3,29,133,37.954,133,49v68.443L130.675,151
	c0,11.046-3.375,20-10.527,20H79.354c-7.153,0-10.277-8.954-10.277-20L67,117.443V49z"/>
<path fill="#D2F8F9" d="M69.766,124.481C69.125,122.485,71.202,121,74.35,121h51.3c3.147,0,5.225,1.485,4.585,3.481l-0.445,1.312
	c-0.594,1.858-3.392,3.206-6.276,3.206H76.488c-2.887,0-5.684-1.348-6.277-3.206L69.766,124.481z"/>
<path fill="#D2F8F9" d="M69.766,65.559C69.125,68.678,71.202,71,74.35,71h51.3c3.147,0,5.225-2.322,4.585-5.441l-0.445-2.299
	c-0.594-2.904-3.392-5.26-6.277-5.26H76.488c-2.889,0-5.684,2.354-6.278,5.26L69.766,65.559z"/>
</svg>
