<?xml version="1.0" encoding="utf-8"?>
<!-- Generator: Adobe Illustrator 16.0.4, SVG Export Plug-In . SVG Version: 6.00 Build 0)  -->
<!DOCTYPE svg PUBLIC "-//W3C//DTD SVG 1.1//EN" "http://www.w3.org/Graphics/SVG/1.1/DTD/svg11.dtd">
<svg version="1.1" xmlns="http://www.w3.org/2000/svg" xmlns:xlink="http://www.w3.org/1999/xlink" x="0px" y="0px" width="200px"
	 height="200px" viewBox="0 0 200 200" enable-background="new 0 0 200 200" xml:space="preserve">
<g id="Layer_1" display="none">
	<path display="inline" fill="#24296B" d="M133,151c0,11.046-5.199,20-12.353,20H79.853C72.7,171,67,162.046,67,151V82.556
		L69.325,49c0-11.046,3.375-20,10.527-20h40.795c7.153,0,10.277,8.954,10.277,20L133,82.556V151z"/>
	<path display="inline" fill="#D2F8F9" d="M130.235,75.518c0.64,1.996-1.437,3.482-4.585,3.482H74.35
		c-3.147,0-5.224-1.486-4.585-3.482l0.446-1.312C70.805,72.347,73.602,71,76.487,71h47.024c2.888,0,5.684,1.347,6.278,3.206
		L130.235,75.518z"/>
	<path display="inline" fill="#D2F8F9" d="M130.235,134.441c0.64-3.119-1.437-5.441-4.585-5.441H74.35
		c-3.147,0-5.224,2.322-4.585,5.441l0.446,2.299c0.594,2.905,3.391,5.26,6.277,5.26h47.024c2.888,0,5.684-2.354,6.278-5.26
		L130.235,134.441z"/>
</g>
<g id="Layer_2" display="none">
	<circle display="inline" fill="#24296B" cx="100.437" cy="100.475" r="43.902"/>
</g>
<g id="Layer_3">
	<rect x="42" y="42" fill="#24296B" width="115" height="116"/>
</g>
</svg>
