<?xml version="1.0" encoding="utf-8"?>
<!-- Generator: Adobe Illustrator 16.0.4, SVG Export Plug-In . SVG Version: 6.00 Build 0)  -->
<!DOCTYPE svg PUBLIC "-//W3C//DTD SVG 1.1//EN" "http://www.w3.org/Graphics/SVG/1.1/DTD/svg11.dtd">
<svg version="1.1" id="Layer_1" xmlns="http://www.w3.org/2000/svg" xmlns:xlink="http://www.w3.org/1999/xlink" x="0px" y="0px"
	 width="50px" height="80px" viewBox="0 0 50 80" enable-background="new 0 0 50 80" xml:space="preserve">
<g id="Page-1">
	<g id="Desktop-HD-Copy" transform="translate(-135.000000, -1817.000000)">
		<g id="icons" transform="translate(135.000000, 1753.000000)">
			<path id="plane" fill="#FFFFFF" d="M16.985,66.584V64l7.992,2.997L32.971,64c0,0,0,3.17,0,2.584l-4.996,6.407
				c0,0,0.409,22.077,1.409,22.077c1.056,0,20.571-10.549,20.571-10.549s0,1.238,0,3.165l-20.571,22.155
				c0,0-0.411,28.096-1.409,29.094c-0.998,2-4.977,2-5.977,0c-0.998-0.998-1.637-28.096-2.637-29.094L0,87.684v-3.165
				c0,0,18.363,10.549,19.362,10.549c1,0,1.62-22.077,1.62-22.077L16.985,66.584z"/>
		</g>
	</g>
</g>
</svg>
